<mxfile host="app.diagrams.net" agent="Mozilla/5.0 (Macintosh; Intel Mac OS X 10_15_7) AppleWebKit/537.36 (KHTML, like Gecko) Chrome/134.0.0.0 Safari/537.36" version="26.0.16">
  <diagram name="Page-1" id="ib-y7zfRI86RBeU3RG47">
    <mxGraphModel dx="2875" dy="1004" grid="1" gridSize="10" guides="1" tooltips="1" connect="1" arrows="1" fold="1" page="1" pageScale="1" pageWidth="850" pageHeight="1100" math="0" shadow="0">
      <root>
        <mxCell id="0" />
        <mxCell id="1" parent="0" />
        <mxCell id="PHWX-da5ZttQmNwxShSh-44" value="" style="rounded=0;whiteSpace=wrap;html=1;fillColor=#dae8fc;strokeColor=#6c8ebf;" vertex="1" parent="1">
          <mxGeometry x="-30" y="80" width="740" height="270" as="geometry" />
        </mxCell>
        <mxCell id="PHWX-da5ZttQmNwxShSh-102" value="" style="rounded=0;whiteSpace=wrap;html=1;fillColor=#d5e8d4;strokeColor=#82b366;" vertex="1" parent="1">
          <mxGeometry x="230" y="95" width="470" height="205" as="geometry" />
        </mxCell>
        <mxCell id="PHWX-da5ZttQmNwxShSh-123" style="edgeStyle=orthogonalEdgeStyle;rounded=0;orthogonalLoop=1;jettySize=auto;html=1;entryX=0;entryY=0.5;entryDx=0;entryDy=0;" edge="1" parent="1" source="PHWX-da5ZttQmNwxShSh-104" target="PHWX-da5ZttQmNwxShSh-23">
          <mxGeometry relative="1" as="geometry">
            <Array as="points">
              <mxPoint x="150" y="150" />
              <mxPoint x="150" y="150" />
            </Array>
          </mxGeometry>
        </mxCell>
        <mxCell id="PHWX-da5ZttQmNwxShSh-104" value="" style="rounded=0;whiteSpace=wrap;html=1;fillColor=#e1d5e7;strokeColor=#9673a6;" vertex="1" parent="1">
          <mxGeometry y="95" width="100" height="205" as="geometry" />
        </mxCell>
        <mxCell id="PHWX-da5ZttQmNwxShSh-119" style="edgeStyle=orthogonalEdgeStyle;rounded=0;orthogonalLoop=1;jettySize=auto;html=1;entryX=0;entryY=0.5;entryDx=0;entryDy=0;" edge="1" parent="1">
          <mxGeometry relative="1" as="geometry">
            <mxPoint x="-240" y="140" as="sourcePoint" />
            <mxPoint y="140" as="targetPoint" />
          </mxGeometry>
        </mxCell>
        <mxCell id="PHWX-da5ZttQmNwxShSh-79" value="" style="rounded=0;whiteSpace=wrap;html=1;fillColor=#ffe6cc;strokeColor=#d79b00;" vertex="1" parent="1">
          <mxGeometry x="-320" y="95" width="80" height="205" as="geometry" />
        </mxCell>
        <mxCell id="PHWX-da5ZttQmNwxShSh-112" style="edgeStyle=orthogonalEdgeStyle;rounded=0;orthogonalLoop=1;jettySize=auto;html=1;entryX=1;entryY=0.5;entryDx=0;entryDy=0;" edge="1" parent="1" source="PHWX-da5ZttQmNwxShSh-72" target="PHWX-da5ZttQmNwxShSh-101">
          <mxGeometry relative="1" as="geometry" />
        </mxCell>
        <mxCell id="PHWX-da5ZttQmNwxShSh-72" value="" style="ellipse;whiteSpace=wrap;html=1;aspect=fixed;" vertex="1" parent="1">
          <mxGeometry x="546.63" y="206.25" width="70" height="70" as="geometry" />
        </mxCell>
        <mxCell id="PHWX-da5ZttQmNwxShSh-17" value="DB" style="shape=cylinder3;whiteSpace=wrap;html=1;boundedLbl=1;backgroundOutline=1;size=15;fillColor=#e1d5e7;strokeColor=#9673a6;" vertex="1" parent="1">
          <mxGeometry x="561.63" y="125" width="40" height="50" as="geometry" />
        </mxCell>
        <mxCell id="PHWX-da5ZttQmNwxShSh-22" value="Micro Service autorizacaoeusuarios" style="text;html=1;align=center;verticalAlign=middle;whiteSpace=wrap;rounded=0;fillColor=#f5f5f5;strokeColor=#666666;fontColor=#333333;" vertex="1" parent="1">
          <mxGeometry x="565" y="310" width="135" height="30" as="geometry" />
        </mxCell>
        <mxCell id="PHWX-da5ZttQmNwxShSh-98" value="" style="edgeStyle=orthogonalEdgeStyle;rounded=0;orthogonalLoop=1;jettySize=auto;html=1;" edge="1" parent="1" source="PHWX-da5ZttQmNwxShSh-23" target="PHWX-da5ZttQmNwxShSh-17">
          <mxGeometry relative="1" as="geometry" />
        </mxCell>
        <mxCell id="PHWX-da5ZttQmNwxShSh-106" value="" style="edgeStyle=orthogonalEdgeStyle;rounded=0;orthogonalLoop=1;jettySize=auto;html=1;" edge="1" parent="1" source="PHWX-da5ZttQmNwxShSh-23" target="PHWX-da5ZttQmNwxShSh-101">
          <mxGeometry relative="1" as="geometry" />
        </mxCell>
        <mxCell id="PHWX-da5ZttQmNwxShSh-23" value="AuthenticationManager" style="shape=process;whiteSpace=wrap;html=1;backgroundOutline=1;fillColor=#e1d5e7;strokeColor=#9673a6;" vertex="1" parent="1">
          <mxGeometry x="280" y="132.5" width="180" height="35" as="geometry" />
        </mxCell>
        <mxCell id="PHWX-da5ZttQmNwxShSh-36" value="" style="sketch=0;pointerEvents=1;shadow=0;dashed=0;html=1;strokeColor=#82b366;fillColor=#d5e8d4;labelPosition=center;verticalLabelPosition=bottom;verticalAlign=top;outlineConnect=0;align=center;shape=mxgraph.office.security.token;" vertex="1" parent="1">
          <mxGeometry x="566.63" y="224" width="30" height="41" as="geometry" />
        </mxCell>
        <mxCell id="PHWX-da5ZttQmNwxShSh-50" value="TB_USERS" style="shape=table;startSize=20;container=1;collapsible=0;childLayout=tableLayout;strokeColor=#d6b656;fontSize=8;fillColor=#fff2cc;" vertex="1" parent="1">
          <mxGeometry x="616.63" y="125" width="70" height="50" as="geometry" />
        </mxCell>
        <mxCell id="PHWX-da5ZttQmNwxShSh-51" value="" style="shape=tableRow;horizontal=0;startSize=0;swimlaneHead=0;swimlaneBody=0;strokeColor=inherit;top=0;left=0;bottom=0;right=0;collapsible=0;dropTarget=0;fillColor=none;points=[[0,0.5],[1,0.5]];portConstraint=eastwest;fontSize=16;" vertex="1" parent="PHWX-da5ZttQmNwxShSh-50">
          <mxGeometry y="20" width="70" height="10" as="geometry" />
        </mxCell>
        <mxCell id="PHWX-da5ZttQmNwxShSh-52" value="" style="shape=partialRectangle;html=1;whiteSpace=wrap;connectable=0;strokeColor=inherit;overflow=hidden;fillColor=none;top=0;left=0;bottom=0;right=0;pointerEvents=1;fontSize=16;" vertex="1" parent="PHWX-da5ZttQmNwxShSh-51">
          <mxGeometry width="23" height="10" as="geometry">
            <mxRectangle width="23" height="10" as="alternateBounds" />
          </mxGeometry>
        </mxCell>
        <mxCell id="PHWX-da5ZttQmNwxShSh-53" value="" style="shape=partialRectangle;html=1;whiteSpace=wrap;connectable=0;strokeColor=inherit;overflow=hidden;fillColor=none;top=0;left=0;bottom=0;right=0;pointerEvents=1;fontSize=16;" vertex="1" parent="PHWX-da5ZttQmNwxShSh-51">
          <mxGeometry x="23" width="27" height="10" as="geometry">
            <mxRectangle width="27" height="10" as="alternateBounds" />
          </mxGeometry>
        </mxCell>
        <mxCell id="PHWX-da5ZttQmNwxShSh-54" value="" style="shape=partialRectangle;html=1;whiteSpace=wrap;connectable=0;strokeColor=inherit;overflow=hidden;fillColor=none;top=0;left=0;bottom=0;right=0;pointerEvents=1;fontSize=16;" vertex="1" parent="PHWX-da5ZttQmNwxShSh-51">
          <mxGeometry x="50" width="20" height="10" as="geometry">
            <mxRectangle width="20" height="10" as="alternateBounds" />
          </mxGeometry>
        </mxCell>
        <mxCell id="PHWX-da5ZttQmNwxShSh-55" value="" style="shape=tableRow;horizontal=0;startSize=0;swimlaneHead=0;swimlaneBody=0;strokeColor=inherit;top=0;left=0;bottom=0;right=0;collapsible=0;dropTarget=0;fillColor=none;points=[[0,0.5],[1,0.5]];portConstraint=eastwest;fontSize=16;" vertex="1" parent="PHWX-da5ZttQmNwxShSh-50">
          <mxGeometry y="30" width="70" height="10" as="geometry" />
        </mxCell>
        <mxCell id="PHWX-da5ZttQmNwxShSh-56" value="" style="shape=partialRectangle;html=1;whiteSpace=wrap;connectable=0;strokeColor=inherit;overflow=hidden;fillColor=none;top=0;left=0;bottom=0;right=0;pointerEvents=1;fontSize=16;" vertex="1" parent="PHWX-da5ZttQmNwxShSh-55">
          <mxGeometry width="23" height="10" as="geometry">
            <mxRectangle width="23" height="10" as="alternateBounds" />
          </mxGeometry>
        </mxCell>
        <mxCell id="PHWX-da5ZttQmNwxShSh-57" value="" style="shape=partialRectangle;html=1;whiteSpace=wrap;connectable=0;strokeColor=inherit;overflow=hidden;fillColor=none;top=0;left=0;bottom=0;right=0;pointerEvents=1;fontSize=16;" vertex="1" parent="PHWX-da5ZttQmNwxShSh-55">
          <mxGeometry x="23" width="27" height="10" as="geometry">
            <mxRectangle width="27" height="10" as="alternateBounds" />
          </mxGeometry>
        </mxCell>
        <mxCell id="PHWX-da5ZttQmNwxShSh-58" value="" style="shape=partialRectangle;html=1;whiteSpace=wrap;connectable=0;strokeColor=inherit;overflow=hidden;fillColor=none;top=0;left=0;bottom=0;right=0;pointerEvents=1;fontSize=16;" vertex="1" parent="PHWX-da5ZttQmNwxShSh-55">
          <mxGeometry x="50" width="20" height="10" as="geometry">
            <mxRectangle width="20" height="10" as="alternateBounds" />
          </mxGeometry>
        </mxCell>
        <mxCell id="PHWX-da5ZttQmNwxShSh-59" value="" style="shape=tableRow;horizontal=0;startSize=0;swimlaneHead=0;swimlaneBody=0;strokeColor=inherit;top=0;left=0;bottom=0;right=0;collapsible=0;dropTarget=0;fillColor=none;points=[[0,0.5],[1,0.5]];portConstraint=eastwest;fontSize=16;" vertex="1" parent="PHWX-da5ZttQmNwxShSh-50">
          <mxGeometry y="40" width="70" height="10" as="geometry" />
        </mxCell>
        <mxCell id="PHWX-da5ZttQmNwxShSh-60" value="" style="shape=partialRectangle;html=1;whiteSpace=wrap;connectable=0;strokeColor=inherit;overflow=hidden;fillColor=none;top=0;left=0;bottom=0;right=0;pointerEvents=1;fontSize=16;" vertex="1" parent="PHWX-da5ZttQmNwxShSh-59">
          <mxGeometry width="23" height="10" as="geometry">
            <mxRectangle width="23" height="10" as="alternateBounds" />
          </mxGeometry>
        </mxCell>
        <mxCell id="PHWX-da5ZttQmNwxShSh-61" value="" style="shape=partialRectangle;html=1;whiteSpace=wrap;connectable=0;strokeColor=inherit;overflow=hidden;fillColor=none;top=0;left=0;bottom=0;right=0;pointerEvents=1;fontSize=16;" vertex="1" parent="PHWX-da5ZttQmNwxShSh-59">
          <mxGeometry x="23" width="27" height="10" as="geometry">
            <mxRectangle width="27" height="10" as="alternateBounds" />
          </mxGeometry>
        </mxCell>
        <mxCell id="PHWX-da5ZttQmNwxShSh-62" value="" style="shape=partialRectangle;html=1;whiteSpace=wrap;connectable=0;strokeColor=inherit;overflow=hidden;fillColor=none;top=0;left=0;bottom=0;right=0;pointerEvents=1;fontSize=16;" vertex="1" parent="PHWX-da5ZttQmNwxShSh-59">
          <mxGeometry x="50" width="20" height="10" as="geometry">
            <mxRectangle width="20" height="10" as="alternateBounds" />
          </mxGeometry>
        </mxCell>
        <mxCell id="PHWX-da5ZttQmNwxShSh-64" value="" style="sketch=0;verticalLabelPosition=bottom;sketch=0;aspect=fixed;html=1;verticalAlign=top;align=center;outlineConnect=0;pointerEvents=1;shape=mxgraph.citrix2.delivery_controller;fillColor=#e1d5e7;strokeColor=#9673a6;" vertex="1" parent="1">
          <mxGeometry x="12.5" y="160" width="75" height="75" as="geometry" />
        </mxCell>
        <mxCell id="PHWX-da5ZttQmNwxShSh-65" value="" style="sketch=0;pointerEvents=1;shadow=0;dashed=0;html=1;strokeColor=#d79b00;fillColor=#ffe6cc;aspect=fixed;labelPosition=center;verticalLabelPosition=bottom;verticalAlign=top;align=center;outlineConnect=0;shape=mxgraph.vvd.nsx_controller;" vertex="1" parent="1">
          <mxGeometry x="-312.5" y="165" width="65" height="65" as="geometry" />
        </mxCell>
        <mxCell id="PHWX-da5ZttQmNwxShSh-75" value="JWT" style="text;html=1;align=center;verticalAlign=middle;whiteSpace=wrap;rounded=0;" vertex="1" parent="1">
          <mxGeometry x="525" y="206.5" width="31.63" height="17.5" as="geometry" />
        </mxCell>
        <mxCell id="PHWX-da5ZttQmNwxShSh-78" value="localhost:9000/auth/login&lt;br&gt;Request" style="text;html=1;align=center;verticalAlign=middle;whiteSpace=wrap;rounded=0;" vertex="1" parent="1">
          <mxGeometry x="-160" y="102.5" width="60" height="30" as="geometry" />
        </mxCell>
        <mxCell id="PHWX-da5ZttQmNwxShSh-80" value="Gateway&amp;nbsp;" style="text;html=1;align=center;verticalAlign=middle;whiteSpace=wrap;rounded=0;" vertex="1" parent="1">
          <mxGeometry x="-316.25" y="265" width="67.5" height="30" as="geometry" />
        </mxCell>
        <mxCell id="PHWX-da5ZttQmNwxShSh-87" value="Fowarding Request" style="text;html=1;align=center;verticalAlign=middle;whiteSpace=wrap;rounded=0;" vertex="1" parent="1">
          <mxGeometry x="120" y="102.5" width="120" height="30" as="geometry" />
        </mxCell>
        <mxCell id="PHWX-da5ZttQmNwxShSh-91" value="Controller" style="text;html=1;align=center;verticalAlign=middle;whiteSpace=wrap;rounded=0;" vertex="1" parent="1">
          <mxGeometry x="17.5" y="265" width="60" height="30" as="geometry" />
        </mxCell>
        <mxCell id="PHWX-da5ZttQmNwxShSh-92" value="Sending Back the&amp;nbsp; Request" style="text;html=1;align=center;verticalAlign=middle;whiteSpace=wrap;rounded=0;" vertex="1" parent="1">
          <mxGeometry x="110" y="200.25" width="160" height="30" as="geometry" />
        </mxCell>
        <mxCell id="PHWX-da5ZttQmNwxShSh-111" style="edgeStyle=orthogonalEdgeStyle;rounded=0;orthogonalLoop=1;jettySize=auto;html=1;entryX=0;entryY=0.5;entryDx=0;entryDy=0;" edge="1" parent="1" source="PHWX-da5ZttQmNwxShSh-101" target="PHWX-da5ZttQmNwxShSh-72">
          <mxGeometry relative="1" as="geometry" />
        </mxCell>
        <mxCell id="PHWX-da5ZttQmNwxShSh-101" value="TokenService" style="shape=process;whiteSpace=wrap;html=1;backgroundOutline=1;fillColor=#e1d5e7;strokeColor=#9673a6;" vertex="1" parent="1">
          <mxGeometry x="280" y="223.75" width="180" height="35" as="geometry" />
        </mxCell>
        <mxCell id="PHWX-da5ZttQmNwxShSh-113" value="generateToken" style="text;html=1;align=center;verticalAlign=middle;whiteSpace=wrap;rounded=0;" vertex="1" parent="1">
          <mxGeometry x="475" y="250" width="60" height="30" as="geometry" />
        </mxCell>
        <mxCell id="PHWX-da5ZttQmNwxShSh-118" style="edgeStyle=orthogonalEdgeStyle;rounded=0;orthogonalLoop=1;jettySize=auto;html=1;exitX=0.5;exitY=1;exitDx=0;exitDy=0;" edge="1" parent="1" source="PHWX-da5ZttQmNwxShSh-44" target="PHWX-da5ZttQmNwxShSh-44">
          <mxGeometry relative="1" as="geometry" />
        </mxCell>
        <mxCell id="PHWX-da5ZttQmNwxShSh-121" style="edgeStyle=orthogonalEdgeStyle;rounded=0;orthogonalLoop=1;jettySize=auto;html=1;entryX=0.979;entryY=0.681;entryDx=0;entryDy=0;entryPerimeter=0;dashed=1;" edge="1" parent="1" source="PHWX-da5ZttQmNwxShSh-104" target="PHWX-da5ZttQmNwxShSh-79">
          <mxGeometry relative="1" as="geometry">
            <Array as="points">
              <mxPoint x="-120" y="235" />
            </Array>
          </mxGeometry>
        </mxCell>
        <mxCell id="PHWX-da5ZttQmNwxShSh-124" style="edgeStyle=orthogonalEdgeStyle;rounded=0;orthogonalLoop=1;jettySize=auto;html=1;entryX=1.032;entryY=0.713;entryDx=0;entryDy=0;entryPerimeter=0;dashed=1;" edge="1" parent="1" source="PHWX-da5ZttQmNwxShSh-101" target="PHWX-da5ZttQmNwxShSh-104">
          <mxGeometry relative="1" as="geometry" />
        </mxCell>
        <mxCell id="PHWX-da5ZttQmNwxShSh-125" value="domain:8080/auth/login" style="text;html=1;align=center;verticalAlign=middle;whiteSpace=wrap;rounded=0;" vertex="1" parent="1">
          <mxGeometry x="-425" y="175" width="60" height="30" as="geometry" />
        </mxCell>
        <mxCell id="PHWX-da5ZttQmNwxShSh-126" value="localhost:9000/auth/login&lt;br&gt;Response" style="text;html=1;align=center;verticalAlign=middle;whiteSpace=wrap;rounded=0;" vertex="1" parent="1">
          <mxGeometry x="-160" y="200.25" width="60" height="30" as="geometry" />
        </mxCell>
        <mxCell id="PHWX-da5ZttQmNwxShSh-128" style="edgeStyle=orthogonalEdgeStyle;rounded=0;orthogonalLoop=1;jettySize=auto;html=1;entryX=0;entryY=0.5;entryDx=0;entryDy=0;" edge="1" parent="1" source="PHWX-da5ZttQmNwxShSh-127" target="PHWX-da5ZttQmNwxShSh-79">
          <mxGeometry relative="1" as="geometry" />
        </mxCell>
        <mxCell id="PHWX-da5ZttQmNwxShSh-127" value="HTTP" style="ellipse;shape=cloud;whiteSpace=wrap;html=1;fillColor=#e1d5e7;strokeColor=#9673a6;" vertex="1" parent="1">
          <mxGeometry x="-580" y="157.5" width="120" height="80" as="geometry" />
        </mxCell>
        <mxCell id="PHWX-da5ZttQmNwxShSh-133" style="edgeStyle=orthogonalEdgeStyle;rounded=0;orthogonalLoop=1;jettySize=auto;html=1;dashed=1;dashPattern=8 8;" edge="1" parent="1" source="PHWX-da5ZttQmNwxShSh-131">
          <mxGeometry relative="1" as="geometry">
            <mxPoint x="190" y="240" as="targetPoint" />
          </mxGeometry>
        </mxCell>
        <mxCell id="PHWX-da5ZttQmNwxShSh-131" value="&lt;div style=&quot;color: rgb(248, 248, 242); background-color: rgb(33, 33, 33); font-family: IBMPlexMono, Monaco, &amp;quot;Courier New&amp;quot;, monospace, Menlo, Monaco, &amp;quot;Courier New&amp;quot;, monospace; font-weight: normal; font-size: 12px; line-height: 18px; white-space: pre;&quot;&gt;&lt;div&gt;&lt;br&gt;&lt;/div&gt;&lt;div&gt;&lt;span style=&quot;color: rgb(248, 248, 242);&quot;&gt;    &lt;/span&gt;&lt;span style=&quot;color: rgb(156, 220, 254);&quot;&gt;&quot;token&quot;&lt;/span&gt;&lt;span style=&quot;color: rgb(220, 220, 220);&quot;&gt;:&lt;/span&gt;&lt;span style=&quot;color: rgb(248, 248, 242);&quot;&gt; &lt;/span&gt;&lt;span style=&quot;color: rgb(206, 145, 120);&quot;&gt;&quot;eyJhbGciOiJIUzI1NiIsInR5cCI6IkpXVCJ9......&quot;&lt;/span&gt;&lt;/div&gt;&lt;div&gt;&lt;br&gt;&lt;/div&gt;&lt;/div&gt;" style="text;html=1;align=center;verticalAlign=middle;whiteSpace=wrap;rounded=0;" vertex="1" parent="1">
          <mxGeometry x="160" y="390" width="60" height="30" as="geometry" />
        </mxCell>
      </root>
    </mxGraphModel>
  </diagram>
</mxfile>
